<svg width="274" height="54" viewBox="0 0 274 54" fill="none" xmlns="http://www.w3.org/2000/svg">
<rect width="53" height="53" fill="#FF006B"/>
<path d="M7.83985 10.3257H16.3594L25.3576 32.2787H25.7405L34.7387 10.3257H43.2583V43H36.5575V21.733H36.2863L27.8305 42.8405H23.2676L14.8119 21.6532H14.5406V43H7.83985V10.3257Z" fill="white"/>
<path d="M64.7002 43.4627C63.1367 43.4627 61.7433 43.1915 60.5202 42.649C59.297 42.0959 58.3291 41.2823 57.6165 40.208C56.9145 39.1231 56.5635 37.7723 56.5635 36.1556C56.5635 34.7942 56.8135 33.6508 57.3134 32.7255C57.8133 31.8001 58.494 31.0556 59.3555 30.4919C60.217 29.9282 61.1956 29.5027 62.2911 29.2155C63.3972 28.9284 64.5566 28.7263 65.7691 28.6093C67.1944 28.4604 68.3431 28.3221 69.2152 28.1945C70.0874 28.0562 70.7202 27.8541 71.1138 27.5882C71.5073 27.3223 71.7041 26.9288 71.7041 26.4076V26.3119C71.7041 25.3014 71.385 24.5197 70.7468 23.9666C70.1193 23.4135 69.2259 23.137 68.0665 23.137C66.8434 23.137 65.8702 23.4082 65.1469 23.9506C64.4236 24.4824 63.945 25.1525 63.711 25.9609L57.425 25.4503C57.7441 23.9613 58.3717 22.6743 59.3076 21.5894C60.2436 20.4939 61.4508 19.6536 62.9293 19.0686C64.4183 18.473 66.1414 18.1752 68.0984 18.1752C69.4599 18.1752 70.7628 18.3347 72.0072 18.6538C73.2623 18.9729 74.3738 19.4675 75.3417 20.1376C76.3202 20.8076 77.0913 21.6692 77.655 22.7222C78.2187 23.7645 78.5006 25.0143 78.5006 26.4714V43H72.0551V39.6017H71.8636C71.4701 40.3676 70.9436 41.0429 70.2842 41.6279C69.6247 42.2023 68.8323 42.6543 67.907 42.984C66.9816 43.3031 65.9127 43.4627 64.7002 43.4627ZM66.6466 38.7721C67.6464 38.7721 68.5292 38.5754 69.295 38.1818C70.0608 37.7776 70.6617 37.2352 71.0978 36.5545C71.5339 35.8738 71.752 35.1027 71.752 34.2411V31.6406C71.5392 31.7789 71.2467 31.9065 70.8745 32.0235C70.5128 32.1298 70.1033 32.2309 69.646 32.3266C69.1886 32.4117 68.7313 32.4915 68.2739 32.5659C67.8166 32.6297 67.4018 32.6882 67.0295 32.7414C66.2318 32.8584 65.5351 33.0446 64.9395 33.2998C64.3439 33.5551 63.8812 33.9008 63.5515 34.3368C63.2218 34.7623 63.0569 35.2941 63.0569 35.9323C63.0569 36.8576 63.3919 37.5649 64.062 38.0542C64.7427 38.5328 65.6043 38.7721 66.6466 38.7721ZM90.57 28.8326V43H83.7735V18.4943H90.2509V22.8179H90.5381C91.0805 21.3926 91.9899 20.2652 93.2662 19.4356C94.5426 18.5953 96.0901 18.1752 97.9089 18.1752C99.6107 18.1752 101.094 18.5475 102.36 19.292C103.626 20.0365 104.61 21.1001 105.312 22.4828C106.014 23.8549 106.365 25.4929 106.365 27.3968V43H99.5682V28.6093C99.5788 27.1096 99.1959 25.9396 98.4195 25.0993C97.643 24.2484 96.5741 23.823 95.2127 23.823C94.298 23.823 93.4896 24.0198 92.7876 24.4133C92.0963 24.8068 91.5538 25.3812 91.1603 26.1364C90.7774 26.8809 90.5806 27.7797 90.57 28.8326Z" fill="white"/>
</svg>
