<svg width="33" height="33" viewBox="0 0 33 33" fill="none" xmlns="http://www.w3.org/2000/svg">
<g id="Instagram - Negative" clip-path="url(#clip0_4_3975)">
<path id="Vector" d="M16.7142 3.44943C21.0527 3.44943 21.5664 3.46846 23.2727 3.54457C24.8584 3.61434 25.7147 3.88074 26.2855 4.10274C27.0403 4.39451 27.5858 4.74971 28.1503 5.31422C28.7211 5.88507 29.07 6.42421 29.3618 7.17901C29.5838 7.74986 29.8502 8.61249 29.9199 10.1918C29.9961 11.9044 30.0151 12.4182 30.0151 16.7503C30.0151 21.0888 29.9961 21.6026 29.9199 23.3088C29.8502 24.8945 29.5838 25.7508 29.3618 26.3216C29.07 27.0764 28.7148 27.6219 28.1503 28.1864C27.5794 28.7573 27.0403 29.1061 26.2855 29.3979C25.7147 29.6199 24.852 29.8863 23.2727 29.9561C21.5601 30.0322 21.0463 30.0512 16.7142 30.0512C12.3757 30.0512 11.8619 30.0322 10.1557 29.9561C8.57 29.8863 7.71372 29.6199 7.14287 29.3979C6.38807 29.1061 5.84259 28.7509 5.27808 28.1864C4.70722 27.6156 4.35837 27.0764 4.0666 26.3216C3.8446 25.7508 3.5782 24.8882 3.50843 23.3088C3.43232 21.5962 3.41329 21.0825 3.41329 16.7503C3.41329 12.4118 3.43232 11.8981 3.50843 10.1918C3.5782 8.60614 3.8446 7.74986 4.0666 7.17901C4.35837 6.42421 4.71357 5.87873 5.27808 5.31422C5.84893 4.74337 6.38807 4.39451 7.14287 4.10274C7.71372 3.88074 8.57635 3.61434 10.1557 3.54457C11.8619 3.46846 12.3757 3.44943 16.7142 3.44943ZM16.7142 0.525391C12.3059 0.525391 11.7541 0.544419 10.0225 0.620533C8.29726 0.696647 7.11115 0.975731 6.08362 1.37533C5.01168 1.79395 4.10466 2.34578 3.20398 3.2528C2.29695 4.15348 1.74513 5.06051 1.3265 6.1261C0.926903 7.15998 0.647819 8.33975 0.571705 10.065C0.495591 11.8029 0.476562 12.3548 0.476562 16.763C0.476562 21.1713 0.495591 21.7231 0.571705 23.4547C0.647819 25.1799 0.926903 26.366 1.3265 27.3936C1.74513 28.4655 2.29695 29.3725 3.20398 30.2732C4.10466 31.1739 5.01168 31.7321 6.07727 32.1444C7.11115 32.544 8.29092 32.823 10.0162 32.8992C11.7478 32.9753 12.2996 32.9943 16.7078 32.9943C21.1161 32.9943 21.6679 32.9753 23.3995 32.8992C25.1248 32.823 26.3109 32.544 27.3384 32.1444C28.404 31.7321 29.311 31.1739 30.2117 30.2732C31.1124 29.3725 31.6706 28.4655 32.0828 27.3999C32.4824 26.366 32.7615 25.1863 32.8376 23.461C32.9138 21.7294 32.9328 21.1776 32.9328 16.7694C32.9328 12.3611 32.9138 11.8093 32.8376 10.0777C32.7615 8.35243 32.4824 7.16632 32.0828 6.13879C31.6832 5.06051 31.1314 4.15348 30.2244 3.2528C29.3237 2.35212 28.4167 1.79395 27.3511 1.38167C26.3172 0.982074 25.1375 0.70299 23.4122 0.626876C21.6743 0.544419 21.1224 0.525391 16.7142 0.525391Z" fill="white"/>
<path id="Vector_2" d="M16.7158 8.42188C12.1109 8.42188 8.375 12.1578 8.375 16.7627C8.375 21.3676 12.1109 25.1035 16.7158 25.1035C21.3207 25.1035 25.0566 21.3676 25.0566 16.7627C25.0566 12.1578 21.3207 8.42188 16.7158 8.42188ZM16.7158 22.1731C13.7283 22.1731 11.3054 19.7502 11.3054 16.7627C11.3054 13.7752 13.7283 11.3523 16.7158 11.3523C19.7033 11.3523 22.1262 13.7752 22.1262 16.7627C22.1262 19.7502 19.7033 22.1731 16.7158 22.1731Z" fill="white"/>
<path id="Vector_3" d="M27.332 8.09178C27.332 9.17006 26.4567 10.039 25.3847 10.039C24.3065 10.039 23.4375 9.16372 23.4375 8.09178C23.4375 7.0135 24.3128 6.14453 25.3847 6.14453C26.4567 6.14453 27.332 7.01984 27.332 8.09178Z" fill="white"/>
</g>
<defs>
<clipPath id="clip0_4_3975">
<rect width="32.4752" height="32.4752" fill="white" transform="translate(0.476562 0.525391)"/>
</clipPath>
</defs>
</svg>
