<svg width="34" height="33" viewBox="0 0 34 33" fill="none" xmlns="http://www.w3.org/2000/svg">
<g id="LinkedIn - Negative" clip-path="url(#clip0_4_3976)">
<path id="Vector" d="M31.0205 0.525391H3.34681C2.02116 0.525391 0.949219 1.57196 0.949219 2.86589V30.6538C0.949219 31.9477 2.02116 33.0006 3.34681 33.0006H31.0205C32.3462 33.0006 33.4245 31.9477 33.4245 30.6601V2.86589C33.4245 1.57196 32.3462 0.525391 31.0205 0.525391ZM10.584 28.1991H5.76342V12.6973H10.584V28.1991ZM8.17369 10.5851C6.62604 10.5851 5.37651 9.33557 5.37651 7.79426C5.37651 6.25296 6.62604 5.00342 8.17369 5.00342C9.715 5.00342 10.9645 6.25296 10.9645 7.79426C10.9645 9.32923 9.715 10.5851 8.17369 10.5851ZM28.6229 28.1991H23.8087V20.6638C23.8087 18.8688 23.777 16.5537 21.3033 16.5537C18.7979 16.5537 18.4173 18.5136 18.4173 20.537V28.1991H13.6095V12.6973H18.2271V14.8158H18.2905C18.9311 13.5979 20.5041 12.3104 22.8446 12.3104C27.7223 12.3104 28.6229 15.5198 28.6229 19.6934V28.1991Z" fill="white"/>
</g>
<defs>
<clipPath id="clip0_4_3976">
<rect width="32.4752" height="32.4752" fill="white" transform="translate(0.949219 0.525391)"/>
</clipPath>
</defs>
</svg>
